<svg xmlns="http://www.w3.org/2000/svg" viewBox="0 0 756.4 179.3"><defs><style>.cls-1{fill:#fff;}</style></defs><title>enuai_inv</title><g id="Layer_2" data-name="Layer 2"><g id="Layer_1-2" data-name="Layer 1"><path class="cls-1" d="M99.2,38.5H45.3V67.7H96.2v38.4H45.3v30.1H99.2v38.4H0V0H99.3V38.5Z"/><path class="cls-1" d="M131.9,174.5V0h45.4L261,106.7V0h45.1V174.5H261L177.2,67.8V174.5Z"/><path class="cls-1" d="M388,0V94.9q0,7.65.6,15.6a42.29,42.29,0,0,0,3.5,14.5,24.25,24.25,0,0,0,9.1,10.5c4.2,2.7,10,4,17.6,4s13.4-1.3,17.5-4a24.92,24.92,0,0,0,9.1-10.5,41.22,41.22,0,0,0,3.6-14.5q.6-8,.6-15.6V0h45.1V101.1q0,40.8-18.6,59.5t-57.3,18.7q-38.7,0-57.4-18.7t-18.7-59.5V0Z"/><path class="cls-1" d="M632.4,144.2H567.6l-10.4,30.3H508.8L575.2,0h49.5l66.4,174.5H642.7Zm-12.1-34.5L600,51.6l-20.4,58.1Z"/><rect class="cls-1" x="711" y="30" width="45.4" height="20"/><rect class="cls-1" x="711" width="45.4" height="20"/><rect class="cls-1" x="711" y="60" width="45.4" height="114.5"/></g></g></svg>