<svg xmlns="http://www.w3.org/2000/svg" viewBox="0 0 105.27 71.97"><defs><style>.cls-1{fill:#fff;}</style></defs><title>grails</title><g id="Layer_2" data-name="Layer 2"><g id="Ebene_1" data-name="Ebene 1"><path class="cls-1" d="M35.37,33.48c-1,.43-2.22.91-2.7,1.17a9.12,9.12,0,0,0-3.06,2.72,10.23,10.23,0,0,0-1.29,2.9,10.18,10.18,0,0,0-.15,2.09,21.18,21.18,0,0,0,1.06,6.5c.78,2.08,1.21,2.77,2.12,4.88.38.89.74,1.74.92,2.15a.52.52,0,0,1,0,.5,4.7,4.7,0,0,1-1.67,1.54c-1.56.84-4.83,1.14-6.46,1.15h0c-1.62,0-4.9-.31-6.45-1.15A4.69,4.69,0,0,1,16,56.39a.52.52,0,0,1,0-.5l.92-2.15c.9-2.11,1.33-2.8,2.11-4.87A21.15,21.15,0,0,0,20,42.36a10,10,0,0,0-.15-2.09,10.2,10.2,0,0,0-1.28-2.9,9.13,9.13,0,0,0-3.06-2.72c-.67-.36-2.81-1.16-3.65-1.62a28.82,28.82,0,0,1-3.4-2.25A33.32,33.32,0,0,1,4.57,27,19.08,19.08,0,0,1,.93,20.42,23,23,0,0,1,0,15.19a.29.29,0,0,1,.27-.32c.82,0,3.78-.1,14.11-.11a.49.49,0,0,1,.46.31c2.91,7.7,10.48,14.06,20.48,17.52A.47.47,0,0,1,35.37,33.48Z"/><path class="cls-1" d="M60.8,55.38c1.27,3.38,2,4.49,3.43,7.92l1.49,3.49a.87.87,0,0,1-.08.82,7.69,7.69,0,0,1-2.71,2.5C60.41,71.47,55.09,72,52.45,72h0c-2.64,0-8-.5-10.48-1.87a7.67,7.67,0,0,1-2.71-2.5.87.87,0,0,1-.08-.82c.28-.67.87-2,1.49-3.49,1.47-3.42,2.16-4.54,3.44-7.92a34.36,34.36,0,0,0,1.72-10.57,16.62,16.62,0,0,0-.24-3.4,16.57,16.57,0,0,0-2.09-4.7,14.73,14.73,0,0,0-5-4.41c-1.1-.58-4.56-1.88-5.93-2.64A46.6,46.6,0,0,1,27.07,26a53.81,53.81,0,0,1-6.32-6.21A31,31,0,0,1,14.85,9.2,37.67,37.67,0,0,1,13.34.71a.46.46,0,0,1,.44-.52C15.46.13,22.64,0,52.45,0s37,.13,38.67.19a.46.46,0,0,1,.44.52A37.7,37.7,0,0,1,90,9.2a31.05,31.05,0,0,1-5.9,10.63A54,54,0,0,1,77.83,26a46.8,46.8,0,0,1-5.53,3.64c-1.36.75-4.83,2.05-5.92,2.64a14.75,14.75,0,0,0-5,4.41,16.55,16.55,0,0,0-2.08,4.7,16.41,16.41,0,0,0-.24,3.4A34.24,34.24,0,0,0,60.8,55.38Z"/><path class="cls-1" d="M100.7,27a33.14,33.14,0,0,1-3.89,3.82A28.86,28.86,0,0,1,93.41,33c-.84.46-3,1.26-3.64,1.62a9.13,9.13,0,0,0-3.06,2.72,10.21,10.21,0,0,0-1.28,2.9,10.14,10.14,0,0,0-.15,2.09,21.21,21.21,0,0,0,1.06,6.5c.79,2.08,1.21,2.77,2.11,4.88l.92,2.15a.52.52,0,0,1,0,.5,4.71,4.71,0,0,1-1.67,1.54c-1.56.84-4.83,1.14-6.46,1.15h0c-1.62,0-4.9-.31-6.46-1.15a4.7,4.7,0,0,1-1.67-1.54.52.52,0,0,1,0-.5c.18-.41.54-1.26.92-2.15.9-2.11,1.33-2.8,2.11-4.87a21.21,21.21,0,0,0,1.06-6.5,10.46,10.46,0,0,0-.15-2.09,10.26,10.26,0,0,0-1.29-2.9,9.13,9.13,0,0,0-3.06-2.72c-.48-.26-1.73-.74-2.7-1.17a.47.47,0,0,1,0-.88c10-3.46,17.58-9.83,20.48-17.52a.49.49,0,0,1,.46-.31c10.33,0,13.29.08,14.11.11a.29.29,0,0,1,.27.32,22.88,22.88,0,0,1-.93,5.23A19.06,19.06,0,0,1,100.7,27Z"/></g></g></svg>